<svg width="34" height="34" viewBox="0 0 34 34" fill="none" xmlns="http://www.w3.org/2000/svg">
<rect x="0.599976" y="0.600098" width="32" height="32" rx="16" fill="black" stroke="white" stroke-width="1.2"/>
<g clip-path="url(#clip0_89292_73)">
<path fill-rule="evenodd" clip-rule="evenodd" d="M13.3018 8.6481C12.4504 8.68695 11.8687 8.82181 11.359 9.02067C10.8332 9.2241 10.3875 9.49838 9.94181 9.94296C9.49838 10.3875 9.2241 10.8344 9.02067 11.3601C8.82181 11.8687 8.68695 12.4504 8.6481 13.3018C8.60924 14.1544 8.6001 14.4275 8.6001 16.6001C8.6001 18.7727 8.60924 19.0458 8.6481 19.8984C8.68695 20.7498 8.82181 21.3315 9.02067 21.8412C9.2241 22.367 9.49838 22.8127 9.94296 23.2584C10.3875 23.7018 10.8344 23.9761 11.3601 24.1807C11.8687 24.3784 12.4504 24.5121 13.3018 24.5521C14.1555 24.591 14.4275 24.6001 16.6001 24.6001C18.7727 24.6001 19.0458 24.591 19.8984 24.5521C20.7498 24.5132 21.3315 24.3784 21.8412 24.1807C22.367 23.975 22.8127 23.7018 23.2584 23.2572C23.7018 22.8127 23.9761 22.3658 24.1807 21.8401C24.3784 21.3315 24.5121 20.7498 24.5521 19.8984C24.591 19.0447 24.6001 18.7727 24.6001 16.6001C24.6001 14.4275 24.591 14.1544 24.5521 13.3018C24.5132 12.4504 24.3784 11.8687 24.1807 11.359C23.9796 10.825 23.6645 10.3414 23.2572 9.94181C22.8127 9.49838 22.3658 9.2241 21.8401 9.02067C21.3315 8.82181 20.7498 8.68695 19.8984 8.6481C19.0458 8.60924 18.7727 8.6001 16.6001 8.6001C14.4275 8.6001 14.1544 8.60924 13.3018 8.6481ZM12.4915 16.6001C12.4915 17.6898 12.9244 18.7348 13.6949 19.5053C14.4654 20.2758 15.5104 20.7087 16.6001 20.7087C17.6898 20.7087 18.7348 20.2758 19.5053 19.5053C20.2758 18.7348 20.7087 17.6898 20.7087 16.6001C20.7087 15.5104 20.2758 14.4654 19.5053 13.6949C18.7348 12.9244 17.6898 12.4915 16.6001 12.4915C15.5104 12.4915 14.4654 12.9244 13.6949 13.6949C12.9244 14.4654 12.4915 15.5104 12.4915 16.6001ZM16.6001 19.2664C15.893 19.2664 15.2148 18.9855 14.7147 18.4854C14.2147 17.9854 13.9338 17.3072 13.9338 16.6001C13.9338 15.893 14.2147 15.2148 14.7147 14.7147C15.2148 14.2147 15.893 13.9338 16.6001 13.9338C17.3072 13.9338 17.9854 14.2147 18.4854 14.7147C18.9855 15.2148 19.2664 15.893 19.2664 16.6001C19.2664 17.3072 18.9855 17.9854 18.4854 18.4854C17.9854 18.9855 17.3072 19.2664 16.6001 19.2664ZM22.2001 12.0401C22.2001 12.1662 22.1753 12.291 22.127 12.4075C22.0788 12.5239 22.0081 12.6298 21.9189 12.7189C21.8298 12.8081 21.7239 12.8788 21.6075 12.927C21.491 12.9753 21.3662 13.0001 21.2401 13.0001C21.114 13.0001 20.9892 12.9753 20.8727 12.927C20.7563 12.8788 20.6504 12.8081 20.5613 12.7189C20.4721 12.6298 20.4014 12.5239 20.3532 12.4075C20.3049 12.291 20.2801 12.1662 20.2801 12.0401C20.2801 11.7855 20.3812 11.5413 20.5613 11.3613C20.7413 11.1812 20.9855 11.0801 21.2401 11.0801C21.4947 11.0801 21.7389 11.1812 21.9189 11.3613C22.099 11.5413 22.2001 11.7855 22.2001 12.0401Z" fill="white"/>
</g>
<defs>
<clipPath id="clip0_89292_73">
<rect width="32" height="32" fill="white" transform="translate(0.599976 0.600098)"/>
</clipPath>
</defs>
</svg>
