<svg width="34" height="34" viewBox="0 0 34 34" fill="none" xmlns="http://www.w3.org/2000/svg">
<rect x="0.599976" y="0.600098" width="32" height="32" rx="16" stroke="white" stroke-width="1.2"/>
<path d="M23.6002 7.6001C24.1307 7.6001 24.6394 7.81081 25.0144 8.18588C25.3895 8.56096 25.6002 9.06966 25.6002 9.6001V23.6001C25.6002 24.1305 25.3895 24.6392 25.0144 25.0143C24.6394 25.3894 24.1307 25.6001 23.6002 25.6001H9.60022C9.06979 25.6001 8.56108 25.3894 8.18601 25.0143C7.81093 24.6392 7.60022 24.1305 7.60022 23.6001V9.6001C7.60022 9.06966 7.81093 8.56096 8.18601 8.18588C8.56108 7.81081 9.06979 7.6001 9.60022 7.6001H23.6002ZM23.1002 23.1001V17.8001C23.1002 16.9355 22.7568 16.1063 22.1454 15.4949C21.534 14.8836 20.7048 14.5401 19.8402 14.5401C18.9902 14.5401 18.0002 15.0601 17.5202 15.8401V14.7301H14.7302V23.1001H17.5202V18.1701C17.5202 17.4001 18.1402 16.7701 18.9102 16.7701C19.2815 16.7701 19.6376 16.9176 19.9002 17.1801C20.1627 17.4427 20.3102 17.7988 20.3102 18.1701V23.1001H23.1002ZM11.4802 13.1601C11.9258 13.1601 12.3531 12.9831 12.6682 12.668C12.9832 12.353 13.1602 11.9257 13.1602 11.4801C13.1602 10.5501 12.4102 9.7901 11.4802 9.7901C11.032 9.7901 10.6021 9.96815 10.2852 10.2851C9.96827 10.602 9.79022 11.0319 9.79022 11.4801C9.79022 12.4101 10.5502 13.1601 11.4802 13.1601ZM12.8702 23.1001V14.7301H10.1002V23.1001H12.8702Z" fill="white"/>
</svg>
